# xmcd
#
# Track frame offsets: 
#        150
#        6440
#        12433
#        23436
#        29087
#        34495
#        41768
#        48278
#        55178
#        64140
#        69744
#        74723
#        78937
#        83097
#        87504
#        93228
#        99617
#        108489
#        122769
#        125900
#        129125
#        137224
#        147396
#        154869
#        162475
#        176643
#        183640
#        188887
#        191011
#        196116
#        203806
#        205870
#        210897
#        218380
#        220522
#        225646
#        234093
#
# Disc length: 3275 seconds
#
# Revision: 0
# Processed by: cddbd v1.5.2PL0 Copyright (c) Steve Scherf et al.
# Submitted via: ExactAudioCopy v1.3
#
DISCID=170cc925
DTITLE=Lefty Frizzell - CD11_Demo and Private Recordings 1950s-1960s
DYEAR=2018
DGENRE=Country
TTITLE0=Don't Stay Away (Till Love Grows Cold) (take 1)
TTITLE1=Don't Stay Away (Till Love Grows Cold) (take 2)
TTITLE2=You Have Never Been Known To Be Wrong
TTITLE3=Why Didn't You Tell Me That Our Love Was Wrong (take 1)
TTITLE4=Why Didn't You Tell Me That Our Love Was Wrong (take 2)
TTITLE5=Forever (And Always)
TTITLE6=Blue Yodel #6
TTITLE7=I Love You So
TTITLE8=Just Little Things Like That
TTITLE9=You're The Reason Why I'm In Misery
TTITLE10=I Won't Be Good For Nothin' (take 1)
TTITLE11=I Won't Be Good For Nothin' (take 2)
TTITLE12=I Won't Be Good For Nothin' (take 3)
TTITLE13=Backdoor Boogie
TTITLE14=She's Every Little Thing Rolled Into One
TTITLE15=I Love You Mostly
TTITLE16=Believe Me (It's True)
TTITLE17=My Little Her And Him
TTITLE18=I Just Can't Live That Fast Anymore (take 1)
TTITLE19=I Just Can't Live That Fast Anymore (take 2)
TTITLE20=Lefty Frizzell and Abe Mulkey - I'll Make It Up To You
TTITLE21=Lefty Frizzell and Abe Mulkey - It's Hard To Please You
TTITLE22=Lefty Frizzell and Abe Mulkey - Too Much Love
TTITLE23=Lefty Frizzell and Abe Mulkey - My Abandoned Heart
TTITLE24=Lefty Frizzell and Abe Mulkey - Wait Till I'm Asleep
TTITLE25=Lefty Frizzell and Abe Mulkey - Not This Time (take 1)
TTITLE26=Lefty Frizzell and Abe Mulkey - Not This Time (take 2)
TTITLE27=Intro "Take Five #1"
TTITLE28=If You've Got The Money
TTITLE29=I Want To Be With You Always
TTITLE30=Intro "Take Five #2"
TTITLE31=My Bucket's Got A Hole In It
TTITLE32=Always Late
TTITLE33=Intro "Take Five #3"
TTITLE34=Make That One For The Road A Cup Of Coffee
TTITLE35=Mom And Dad's Waltz
TTITLE36=Interview with Frank Jones
EXTD=
EXTT0=
EXTT1=
EXTT2=
EXTT3=
EXTT4=
EXTT5=
EXTT6=
EXTT7=
EXTT8=
EXTT9=
EXTT10=
EXTT11=
EXTT12=
EXTT13=
EXTT14=
EXTT15=
EXTT16=
EXTT17=
EXTT18=
EXTT19=
EXTT20=
EXTT21=
EXTT22=
EXTT23=
EXTT24=
EXTT25=
EXTT26=
EXTT27=
EXTT28=
EXTT29=
EXTT30=
EXTT31=
EXTT32=
EXTT33=
EXTT34=
EXTT35=
EXTT36=
PLAYORDER=
